<!DOCTYPE svg PUBLIC "-//W3C//DTD SVG 1.1//EN" "http://www.w3.org/Graphics/SVG/1.1/DTD/svg11.dtd">
<svg class="rating" xmlns="http://www.w3.org/2000/svg" viewBox="0 0 84 25">
  <path id="Outline_1" class="Outline" d="M6.64,17.65c0.53,0.93,1.52,1.5,2.59,1.5h1.73c1.07,0,2.05-0.58,2.59-1.5l1.37-2.37
  	c0.14-0.24,0.06-0.55-0.18-0.68l-0.43-0.25c-0.24-0.14-0.54-0.06-0.68,0.18l-1.37,2.37c-0.27,0.46-0.76,0.75-1.29,0.75H9.23
  	c-0.53,0-1.03-0.29-1.29-0.75l-1.36-2.37c-0.14-0.24-0.44-0.32-0.68-0.18L5.46,14.6c-0.24,0.14-0.32,0.44-0.18,0.68L6.64,17.65z
  	 M16.33,2.35c0.53,0,1.03,0.29,1.29,0.75l0.87,1.49c0.26,0.46,0.26,1.03,0,1.49l-1.37,2.38c-0.14,0.24-0.06,0.54,0.18,0.68
  	l0.43,0.25c0.24,0.14,0.55,0.06,0.68-0.18l1.37-2.38c0.53-0.92,0.53-2.06,0-2.99l-0.87-1.49c-0.53-0.93-1.52-1.5-2.59-1.5h-2.74
  	c-0.28,0-0.5,0.22-0.5,0.5v0.5c0,0.28,0.22,0.5,0.5,0.5H16.33z M6.6,2.35c0.28,0,0.5-0.22,0.5-0.5v-0.5c0-0.28-0.22-0.5-0.5-0.5
  	H3.86c-1.07,0-2.06,0.57-2.59,1.5L0.4,3.84c-0.53,0.93-0.53,2.07,0,2.99l1.37,2.38C1.91,9.45,2.21,9.53,2.45,9.4l0.43-0.25
  	C3.12,9.01,3.21,8.7,3.07,8.46L1.7,6.09c-0.26-0.46-0.26-1.03,0-1.49L2.57,3.1c0.26-0.46,0.76-0.75,1.29-0.75H6.6z"/>
  <path id="Fill_1" class="Fill" d="M4.01,3.34h12.17c0.36,0,0.69,0.19,0.87,0.5l0.51,0.88c0.18,0.31,0.18,0.69,0,1l-6.09,10.54
  	c-0.18,0.31-0.51,0.5-0.87,0.5H9.59c-0.36,0-0.69-0.19-0.87-0.5L2.64,5.72c-0.18-0.31-0.18-0.69,0-1l0.51-0.88
  	C3.32,3.54,3.65,3.34,4.01,3.34z"/>
  <path id="Outline_2" class="Outline" d="M29.5,7.35c-0.53-0.93-1.52-1.5-2.59-1.5h-1.73c-1.07,0-2.05,0.58-2.59,1.5l-1.37,2.37
  	c-0.14,0.24-0.06,0.55,0.18,0.68l0.43,0.25c0.24,0.14,0.54,0.06,0.68-0.18l1.37-2.37c0.27-0.46,0.76-0.75,1.29-0.75h1.73
  	c0.53,0,1.03,0.29,1.29,0.75l1.36,2.37c0.14,0.24,0.44,0.32,0.68,0.18l0.43-0.25c0.24-0.14,0.32-0.44,0.18-0.68L29.5,7.35z
  	 M19.81,22.65c-0.53,0-1.03-0.29-1.29-0.75l-0.87-1.49c-0.26-0.46-0.26-1.03,0-1.49l1.37-2.38c0.14-0.24,0.06-0.54-0.18-0.68
  	L18.4,15.6c-0.24-0.14-0.55-0.06-0.68,0.18l-1.37,2.38c-0.53,0.92-0.53,2.06,0,2.99l0.87,1.49c0.53,0.93,1.52,1.5,2.59,1.5h2.74
  	c0.28,0,0.5-0.22,0.5-0.5v-0.5c0-0.28-0.22-0.5-0.5-0.5H19.81z M29.54,22.65c-0.28,0-0.5,0.22-0.5,0.5v0.5c0,0.28,0.22,0.5,0.5,0.5
  	h2.74c1.07,0,2.06-0.57,2.59-1.5l0.87-1.49c0.53-0.93,0.53-2.07,0-2.99l-1.37-2.38c-0.14-0.24-0.44-0.32-0.68-0.18l-0.43,0.25
  	c-0.24,0.14-0.32,0.44-0.18,0.68l1.37,2.38c0.26,0.46,0.26,1.03,0,1.49l-0.87,1.49c-0.26,0.46-0.76,0.75-1.29,0.75H29.54z"/>
  <path id="Fill_2" class="Fill" d="M19.96,21.71h12.17c0.36,0,0.69-0.19,0.87-0.5l0.51-0.88c0.18-0.31,0.18-0.69,0-1L27.42,8.79
  	c-0.18-0.31-0.51-0.5-0.87-0.5h-1.01c-0.36,0-0.69,0.19-0.87,0.5l-6.09,10.54c-0.18,0.31-0.18,0.69,0,1l0.51,0.88
  	C19.27,21.52,19.6,21.71,19.96,21.71z"/>
  <path id="Outline_3" class="Outline" d="M38.55,17.65c0.53,0.93,1.52,1.5,2.59,1.5h1.73c1.07,0,2.05-0.58,2.59-1.5l1.37-2.37
  	c0.14-0.24,0.06-0.55-0.18-0.68l-0.43-0.25c-0.24-0.14-0.54-0.06-0.68,0.18l-1.37,2.37c-0.27,0.46-0.76,0.75-1.29,0.75h-1.73
  	c-0.53,0-1.03-0.29-1.29-0.75l-1.36-2.37c-0.14-0.24-0.44-0.32-0.68-0.18l-0.43,0.25c-0.24,0.14-0.32,0.44-0.18,0.68L38.55,17.65z
  	 M48.24,2.35c0.53,0,1.03,0.29,1.29,0.75l0.87,1.49c0.26,0.46,0.26,1.03,0,1.49l-1.37,2.38c-0.14,0.24-0.06,0.54,0.18,0.68
  	l0.43,0.25c0.24,0.14,0.55,0.06,0.68-0.18l1.37-2.38c0.53-0.92,0.53-2.06,0-2.99l-0.87-1.49c-0.53-0.93-1.52-1.5-2.59-1.5H45.5
  	c-0.28,0-0.5,0.22-0.5,0.5v0.5c0,0.28,0.22,0.5,0.5,0.5H48.24z M38.5,2.35c0.28,0,0.5-0.22,0.5-0.5v-0.5c0-0.28-0.22-0.5-0.5-0.5
  	h-2.74c-1.07,0-2.06,0.57-2.59,1.5L32.3,3.84c-0.53,0.93-0.53,2.07,0,2.99l1.37,2.38c0.14,0.24,0.44,0.32,0.68,0.18l0.43-0.25
  	c0.24-0.14,0.32-0.44,0.18-0.68L33.6,6.09c-0.26-0.46-0.26-1.03,0-1.49l0.87-1.49c0.26-0.46,0.76-0.75,1.29-0.75H38.5z"/>
  <path id="Fill_3" class="Fill" d="M35.91,3.34h12.17c0.36,0,0.69,0.19,0.87,0.5l0.51,0.88c0.18,0.31,0.18,0.69,0,1l-6.09,10.54
  	c-0.18,0.31-0.51,0.5-0.87,0.5h-1.01c-0.36,0-0.69-0.19-0.87-0.5L34.54,5.72c-0.18-0.31-0.18-0.69,0-1l0.51-0.88
  	C35.23,3.54,35.56,3.34,35.91,3.34z"/>
  <path id="Outline_4" class="Outline" d="M61.41,7.35c-0.53-0.93-1.52-1.5-2.59-1.5h-1.73c-1.07,0-2.05,0.58-2.59,1.5l-1.37,2.37
  	c-0.14,0.24-0.06,0.55,0.18,0.68l0.43,0.25c0.24,0.14,0.54,0.06,0.68-0.18L55.8,8.1c0.27-0.46,0.76-0.75,1.29-0.75h1.73
  	c0.53,0,1.03,0.29,1.29,0.75l1.36,2.37c0.14,0.24,0.44,0.32,0.68,0.18l0.43-0.25c0.24-0.14,0.32-0.44,0.18-0.68L61.41,7.35z
  	 M51.72,22.65c-0.53,0-1.03-0.29-1.29-0.75l-0.87-1.49c-0.26-0.46-0.26-1.03,0-1.49l1.37-2.38c0.14-0.24,0.06-0.54-0.18-0.68
  	l-0.43-0.25c-0.24-0.14-0.55-0.06-0.68,0.18l-1.37,2.38c-0.53,0.92-0.53,2.06,0,2.99l0.87,1.49c0.53,0.93,1.52,1.5,2.59,1.5h2.74
  	c0.28,0,0.5-0.22,0.5-0.5v-0.5c0-0.28-0.22-0.5-0.5-0.5H51.72z M61.45,22.65c-0.28,0-0.5,0.22-0.5,0.5v0.5c0,0.28,0.22,0.5,0.5,0.5
  	h2.74c1.07,0,2.06-0.57,2.59-1.5l0.87-1.49c0.53-0.93,0.53-2.07,0-2.99l-1.37-2.38c-0.14-0.24-0.44-0.32-0.68-0.18l-0.43,0.25
  	c-0.24,0.14-0.32,0.44-0.18,0.68l1.37,2.38c0.26,0.46,0.26,1.03,0,1.49l-0.87,1.49c-0.26,0.46-0.76,0.75-1.29,0.75H61.45z"/>
  <path id="Fill_4" class="Fill" d="M51.87,21.71h12.17c0.36,0,0.69-0.19,0.87-0.5l0.51-0.88c0.18-0.31,0.18-0.69,0-1L59.32,8.79
  	c-0.18-0.31-0.51-0.5-0.87-0.5h-1.01c-0.36,0-0.69,0.19-0.87,0.5L50.5,19.33c-0.18,0.31-0.18,0.69,0,1L51,21.21
  	C51.18,21.52,51.51,21.71,51.87,21.71z"/>
  <path id="Outline_5" class="Outline" d="M70.45,17.65c0.53,0.93,1.52,1.5,2.59,1.5h1.73c1.07,0,2.05-0.58,2.59-1.5l1.37-2.37
  	c0.14-0.24,0.06-0.55-0.18-0.68l-0.43-0.25c-0.24-0.14-0.54-0.06-0.68,0.18l-1.37,2.37c-0.27,0.46-0.76,0.75-1.29,0.75h-1.73
  	c-0.53,0-1.03-0.29-1.29-0.75l-1.36-2.37c-0.14-0.24-0.44-0.32-0.68-0.18l-0.43,0.25c-0.24,0.14-0.32,0.44-0.18,0.68L70.45,17.65z
  	 M80.14,2.35c0.53,0,1.03,0.29,1.29,0.75l0.87,1.49c0.26,0.46,0.26,1.03,0,1.49l-1.37,2.38c-0.14,0.24-0.06,0.54,0.18,0.68
  	l0.43,0.25c0.24,0.14,0.55,0.06,0.68-0.18l1.37-2.38c0.53-0.92,0.53-2.06,0-2.99l-0.87-1.49c-0.53-0.93-1.52-1.5-2.59-1.5H77.4
  	c-0.28,0-0.5,0.22-0.5,0.5v0.5c0,0.28,0.22,0.5,0.5,0.5H80.14z M70.41,2.35c0.28,0,0.5-0.22,0.5-0.5v-0.5c0-0.28-0.22-0.5-0.5-0.5
  	h-2.74c-1.07,0-2.06,0.57-2.59,1.5l-0.87,1.49c-0.53,0.93-0.53,2.07,0,2.99l1.37,2.38c0.14,0.24,0.44,0.32,0.68,0.18l0.43-0.25
  	c0.24-0.14,0.32-0.44,0.18-0.68l-1.37-2.38c-0.26-0.46-0.26-1.03,0-1.49l0.87-1.49c0.26-0.46,0.76-0.75,1.29-0.75H70.41z"/>
  <path id="Fill_5" class="Fill" d="M67.82,3.34h12.17c0.36,0,0.69,0.19,0.87,0.5l0.51,0.88c0.18,0.31,0.18,0.69,0,1l-6.09,10.54
  	c-0.18,0.31-0.51,0.5-0.87,0.5H73.4c-0.36,0-0.69-0.19-0.87-0.5L66.45,5.72c-0.18-0.31-0.18-0.69,0-1l0.51-0.88
  	C67.13,3.54,67.46,3.34,67.82,3.34z"/>
</svg>
